<svg width="24" height="24" viewBox="0 0 24 24" fill="none" xmlns="http://www.w3.org/2000/svg">
<path d="M12.0001 17.6933C12.8965 17.6905 13.7902 17.5945 14.6667 17.4067L14.6667 19.8067C15.0323 19.6831 15.3888 19.5338 15.7334 19.36L15.7334 17.1267C17.136 16.7068 18.4587 16.0557 19.6467 15.2C19.8766 14.6533 20.0465 14.0833 20.1534 13.5C18.8939 14.6722 17.3949 15.557 15.7601 16.0933L15.7601 12.5L20.2667 12.5L20.2667 11.5L15.7534 11.5L15.7534 7.90667C17.3912 8.44405 18.8926 9.33122 20.1534 10.5067C20.0483 9.92585 19.8806 9.3581 19.6534 8.81333C18.4703 7.9543 17.1522 7.29864 15.7534 6.87333L15.7534 4.62667C15.4025 4.44971 15.0393 4.29821 14.6667 4.17333L14.6667 6.59333C13.7902 6.40552 12.8965 6.30945 12.0001 6.30667C11.0195 6.30851 10.0423 6.42032 9.08672 6.64L9.08672 4.28C8.71304 4.41792 8.34986 4.5828 8.00006 4.77333L8.00006 6.92667C6.72286 7.33481 5.51723 7.93987 4.42672 8.72C4.18711 9.27865 4.01047 9.86224 3.90006 10.46C5.08688 9.37195 6.48151 8.53517 8.00006 8L8.00006 11.5067L3.77339 11.5067L3.77339 12.5067L8.00006 12.5067L8.00006 16C6.48088 15.463 5.08618 14.6239 3.90006 13.5333C4.01428 14.1339 4.19541 14.7198 4.44006 15.28C5.52647 16.0589 6.72752 16.6639 8.00006 17.0733L8.00006 19.2067C8.3434 19.3963 8.69986 19.5612 9.06672 19.7L9.06672 17.3333C10.0278 17.5635 11.0118 17.6842 12.0001 17.6933ZM9.08672 11.5L9.08672 7.67333C10.9215 7.20398 12.8423 7.1834 14.6867 7.61333L14.6867 11.5L9.08672 11.5ZM9.08672 16.3267L9.08672 12.5L14.6667 12.5L14.6667 16.3867C13.7909 16.5782 12.8966 16.6721 12.0001 16.6667C11.0187 16.6721 10.0404 16.5579 9.08672 16.3267Z" fill="black"/>
<path d="M22.6666 12C22.6666 9.89033 22.041 7.82804 20.869 6.07392C19.6969 4.31979 18.031 2.95262 16.0819 2.14528C14.1328 1.33795 11.9881 1.12671 9.919 1.53829C7.84987 1.94987 5.94925 2.96577 4.45749 4.45753C2.96573 5.94929 1.94983 7.84991 1.53825 9.91904C1.12668 11.9882 1.33791 14.1329 2.14525 16.082C2.95258 18.031 4.31975 19.6969 6.07388 20.869C7.828 22.0411 9.89029 22.6667 12 22.6667C14.8289 22.6667 17.542 21.5429 19.5424 19.5425C21.5428 17.5421 22.6666 14.829 22.6666 12ZM2.66663 12C2.66663 10.154 3.21402 8.34954 4.23958 6.81468C5.26514 5.27982 6.7228 4.08354 8.42825 3.37712C10.1337 2.67071 12.0103 2.48587 13.8208 2.846C15.6313 3.20613 17.2943 4.09505 18.5996 5.40034C19.9049 6.70563 20.7938 8.36867 21.154 10.1792C21.5141 11.9896 21.3293 13.8663 20.6228 15.5717C19.9164 17.2772 18.7201 18.7348 17.1853 19.7604C15.6504 20.7859 13.8459 21.3333 12 21.3333C9.52461 21.3333 7.15064 20.35 5.4003 18.5997C3.64996 16.8493 2.66663 14.4754 2.66663 12Z" fill="black"/>
</svg>
