<svg width="29" height="29" viewBox="0 0 29 29" fill="none" xmlns="http://www.w3.org/2000/svg">
<path d="M14.875 2C8.87834 2 4 6.87834 4 12.875C4 18.8717 8.87834 23.75 14.875 23.75C20.8717 23.75 25.75 18.8717 25.75 12.875C25.75 6.87834 20.8717 2 14.875 2ZM14.875 3.8125C19.8911 3.8125 23.9375 7.85891 23.9375 12.875C23.9375 17.8911 19.8911 21.9375 14.875 21.9375C9.85891 21.9375 5.8125 17.8911 5.8125 12.875C5.8125 7.85891 9.85891 3.8125 14.875 3.8125ZM10.7969 9.25C10.4363 9.25 10.0906 9.39322 9.83565 9.64815C9.58072 9.90308 9.4375 10.2488 9.4375 10.6094C9.4375 10.9699 9.58072 11.3157 9.83565 11.5706C10.0906 11.8255 10.4363 11.9688 10.7969 11.9688C11.1574 11.9687 11.5032 11.8255 11.7581 11.5706C12.013 11.3157 12.1562 10.9699 12.1562 10.6094C12.1562 10.2488 12.013 9.90308 11.7581 9.64815C11.5032 9.39322 11.1574 9.25 10.7969 9.25ZM18.9531 9.25C18.5926 9.25 18.2468 9.39322 17.9919 9.64815C17.737 9.90308 17.5938 10.2488 17.5938 10.6094C17.5938 10.9699 17.737 11.3157 17.9919 11.5706C18.2468 11.8255 18.5926 11.9688 18.9531 11.9688C19.3137 11.9687 19.6594 11.8255 19.9143 11.5706C20.1693 11.3157 20.3125 10.9699 20.3125 10.6094C20.3125 10.2488 20.1693 9.90308 19.9143 9.64815C19.6594 9.39322 19.3137 9.25 18.9531 9.25ZM10.1734 15.5938L8.61644 16.5C9.86978 18.6632 12.1988 20.125 14.875 20.125C17.5512 20.125 19.8802 18.6632 21.1336 16.5L19.5766 15.5938C19.1016 16.4207 18.4167 17.1076 17.5912 17.585C16.7656 18.0624 15.8287 18.3133 14.875 18.3125C13.9213 18.3133 12.9844 18.0624 12.1588 17.585C11.3333 17.1076 10.6484 16.4207 10.1734 15.5938V15.5938Z" fill="black"/>
</svg>
